<svg xmlns="http://www.w3.org/2000/svg" xmlns:xlink="http://www.w3.org/1999/xlink" version="1.1" x="0px" y="0px" viewBox="0 0 100 125" enable-background="new 0 0 100 100" xml:space="preserve"><g><path d="M86.222,44.966c-0.615-2.882-2.027-4.764-3.977-5.297c-0.12-0.033-0.244-0.052-0.367-0.074   c0-0.021-0.001-0.043-0.002-0.064c-0.043-1.324-0.087-2.678-0.087-4.047C81.789,19,68.892,6.782,51.015,6.194V6.163l-1.016,0.006   l-0.265-0.006l-0.75,0.012v0.018C31.167,6.78,18.312,18.954,18.312,35.378c0,1.411-0.057,2.826-0.111,4.2   c-0.15,0.024-0.302,0.05-0.447,0.091c-1.949,0.534-3.361,2.415-3.978,5.297c-0.579,2.709-0.396,6.033,0.518,9.357   c1.446,5.271,4.386,9.326,7.433,10.572c0.299,1.974,0.574,3.998,0.802,6.01c0.778,6.855,7.601,12.01,12.116,15.42   c1.203,0.908,2.242,1.693,2.947,2.343c3.278,3.017,6.117,4.101,11.393,4.272v0.024l1.027-0.003l0.252,0.003l0.751-0.006V92.94   c5.273-0.172,8.112-1.258,11.394-4.273c0.706-0.648,1.744-1.434,2.946-2.342c4.516-3.41,11.338-8.563,12.117-15.42   c0.228-2.012,0.502-4.037,0.799-6.01c3.049-1.246,5.988-5.303,7.435-10.572C86.617,50.999,86.802,47.675,86.222,44.966z    M15.741,53.928c-0.851-3.099-1.026-6.17-0.498-8.649c0.492-2.301,1.521-3.777,2.897-4.16c-0.11,3.064-0.125,5.951,0.572,8.482   c0.689,2.514,1.791,7.645,2.729,13.465C19.152,61.608,16.891,58.119,15.741,53.928z M75.979,70.737   c-0.705,6.217-7.219,11.137-11.528,14.392c-1.233,0.933-2.3,1.737-3.06,2.435c-3.149,2.896-5.752,3.808-11.14,3.896l-0.209,0.003   l-0.085-0.001h-0.03l-0.181-0.003c-5.387-0.089-7.989-1-11.139-3.896c-0.759-0.699-1.825-1.504-3.06-2.437   c-4.31-3.255-10.824-8.175-11.529-14.392c-0.995-8.78-2.856-17.879-3.86-21.534c-0.737-2.685-0.604-5.952-0.465-9.412   c0.06-1.437,0.118-2.92,0.118-4.413c0-15.794,12.59-27.445,29.934-27.703l0.166-0.005l0.342,0.005   C67.658,7.933,80.29,19.627,80.29,35.479c0,1.391,0.045,2.767,0.088,4.098c0.115,3.527,0.225,6.861-0.535,9.624   C78.837,52.856,76.974,61.953,75.979,70.737z M84.259,53.928c-1.146,4.175-3.422,7.646-5.699,9.113   c0.938-5.812,2.039-10.933,2.729-13.44c0.697-2.539,0.718-5.412,0.636-8.457c1.344,0.414,2.349,1.873,2.832,4.135   C85.285,47.758,85.108,50.829,84.259,53.928z"/><path d="M52.218,50.524c0,0.313,0.25,0.567,0.559,0.567c0.311,0,0.559-0.254,0.559-0.567v-1.883h1.318   c0.836,0,1.516-0.693,1.516-1.546v-1.338h1.85c0.31,0,0.56-0.256,0.56-0.567c0-0.314-0.25-0.57-0.56-0.57h-1.85v-1.281h1.85   c0.31,0,0.56-0.254,0.56-0.566c0-0.312-0.25-0.567-0.56-0.567h-1.85v-1.282h1.85c0.31,0,0.56-0.254,0.56-0.568   c0-0.312-0.25-0.565-0.56-0.565h-1.85v-1.272c0-0.853-0.68-1.543-1.516-1.543h-1.318V35.09c0-0.313-0.249-0.567-0.559-0.567   c-0.309,0-0.559,0.254-0.559,0.567v1.884h-1.259V35.09c0-0.313-0.25-0.567-0.559-0.567s-0.557,0.254-0.557,0.567v1.884h-1.259   V35.09c0-0.313-0.251-0.567-0.559-0.567c-0.31,0-0.56,0.254-0.56,0.567v1.884H46.15c-0.838,0-1.518,0.692-1.518,1.545v1.58h-1.85   c-0.309,0-0.559,0.256-0.559,0.569c0,0.312,0.25,0.567,0.559,0.567h1.85v1.279h-1.85c-0.309,0-0.559,0.254-0.559,0.568   s0.25,0.568,0.559,0.568h1.85v1.281h-1.85c-0.309,0-0.559,0.254-0.559,0.567c0,0.312,0.25,0.565,0.559,0.565h1.85v1.029   c0,0.852,0.68,1.545,1.518,1.545h1.316v1.883c0,0.312,0.25,0.568,0.56,0.568c0.308,0,0.559-0.256,0.559-0.568V48.64h1.259v1.883   c0,0.314,0.248,0.568,0.557,0.568s0.559-0.254,0.559-0.568V48.64h1.259V50.524z M46.151,47.505c-0.222,0-0.401-0.184-0.401-0.408   v-8.582c0-0.225,0.18-0.408,0.401-0.408h8.501c0.221,0,0.399,0.185,0.399,0.408v8.582c0,0.225-0.18,0.408-0.399,0.408H46.151z"/><path d="M53.591,39.054h-6.378c-0.31,0-0.559,0.254-0.559,0.566v6.494c0,0.312,0.249,0.568,0.559,0.568h6.378   c0.31,0,0.558-0.257,0.558-0.568V39.62C54.147,39.308,53.899,39.054,53.591,39.054z M53.032,45.546H47.77v-5.357h5.263V45.546z"/><path d="M72.688,51.026l-0.004-7.006c0-0.314-0.25-0.566-0.559-0.566h-3.146c0.054-0.301,0.082-0.607,0.082-0.922   c0-0.027-0.004-0.053-0.004-0.08c0-0.006,0.004-0.01,0.004-0.016c0-2.07-1.221-3.845-2.944-4.57   c-0.276-0.125-0.565-0.225-0.868-0.293c0.787-0.914,1.23-2.104,1.23-3.383c0-0.342-0.033-0.674-0.094-0.996h3.531   c0.309,0,0.559-0.256,0.559-0.568v-7.67c0.932-0.252,1.627-1.107,1.632-2.135c0.004-1.226-0.972-2.228-2.185-2.23   c-1.197,0-2.18,0.992-2.184,2.213c-0.005,1.029,0.686,1.891,1.619,2.148v7.105h-3.333c-0.581-1.31-1.673-2.314-3.007-2.729   l-0.008-4.289c0.933-0.25,1.627-1.106,1.633-2.136c0.004-1.225-0.973-2.227-2.185-2.229c-1.198,0-2.179,0.994-2.184,2.215   c-0.003,0.595,0.223,1.152,0.633,1.574c0.276,0.283,0.616,0.474,0.985,0.572l0.008,4.098c-0.081-0.004-0.16-0.012-0.241-0.012   c-0.292,0-0.584,0.03-0.871,0.088c-0.171-2.558-2.196-4.582-4.669-4.582c-0.014,0-0.025,0.006-0.039,0.006   c-0.054,0-0.104-0.006-0.158-0.006c-2.566,0-4.818,2.521-4.818,5.397v3.133c0,0.314,0.25,0.568,0.559,0.568   s0.559-0.254,0.559-0.568v-3.133c0-2.271,1.729-4.264,3.701-4.264c2.043,0,3.703,1.764,3.703,3.932   c0,0.062-0.004,0.125-0.009,0.187l-0.005,0.062c-0.004,0.071,0.01,0.143,0.029,0.209c-0.27,1.807-1.743,3.194-3.521,3.194   c-0.309,0-0.559,0.257-0.559,0.568c0,0.313,0.25,0.567,0.559,0.567c2.309,0,4.229-1.766,4.612-4.08   c0.308-0.086,0.616-0.145,0.928-0.145c2.042,0,3.702,1.764,3.702,3.932c0,1.4-0.68,2.662-1.819,3.379   c-0.012,0.008-0.02,0.021-0.03,0.027c-2.174,0.428-3.822,2.434-3.822,4.84c0,0.312,0.249,0.568,0.558,0.568   c0.31,0,0.56-0.256,0.56-0.568c0-2.09,1.602-3.791,3.568-3.791c0.471,0,0.92,0.101,1.329,0.275   c1.315,0.604,2.241,1.994,2.241,3.611c0,2.168-1.661,3.932-3.703,3.932c-0.1,0-0.195-0.008-0.291-0.016   c-0.253-0.029-0.494,0.133-0.577,0.381s0.011,0.521,0.226,0.662c1.076,0.705,1.725,1.91,1.757,3.238   c-0.011,0.045-0.026,0.088-0.026,0.137c0,2.092-1.602,3.791-3.568,3.791c-1.97,0-3.57-1.699-3.57-3.791   c0-0.314-0.249-0.568-0.559-0.568s-0.558,0.254-0.558,0.568c0,1.842,0.965,3.447,2.392,4.293c0.026,0.092,0.053,0.172,0.074,0.238   c0.066,0.205,0.084,0.258,0.084,0.521c0,2.166-1.66,3.932-3.703,3.932c-2.041,0-3.701-1.766-3.701-3.932   c0-0.029-0.013-0.056-0.017-0.084c0.004-0.027,0.017-0.054,0.017-0.082v-2.992c0-0.312-0.25-0.565-0.559-0.565   c-0.311,0-0.559,0.254-0.559,0.565v2.992c0,0.028,0.013,0.055,0.017,0.082c-0.004,0.028-0.017,0.055-0.017,0.084   c0,2.428,1.634,4.461,3.804,4.953v1.854c0,0.312,0.25,0.566,0.558,0.566l8.606,0.006c0.252,0.945,1.095,1.65,2.103,1.65h0.008   c1.203-0.006,2.181-1.008,2.177-2.232c-0.007-1.221-0.985-2.215-2.193-2.215c-1.009,0.004-1.849,0.711-2.096,1.66l-8.045-0.006   v-1.176c2.608-0.058,4.718-2.306,4.718-5.062c0-0.037-0.002-0.074-0.002-0.109c0.303,0.062,0.609,0.092,0.922,0.092   c2.656,0,4.818-2.271,4.818-5.065c0-1.259-0.438-2.441-1.208-3.353c1.51-0.348,2.755-1.44,3.37-2.893h2.925l0.005,6.432   c-0.932,0.25-1.627,1.105-1.631,2.133c-0.004,1.226,0.972,2.228,2.174,2.23h0.01c1.199,0,2.18-0.994,2.184-2.215   C74.313,52.144,73.626,51.282,72.688,51.026z M68.854,22.81c0.004-0.596,0.482-1.084,1.072-1.084   c0.588,0.002,1.066,0.494,1.063,1.092c-0.003,0.599-0.481,1.082-1.067,1.082v0.218h-0.002l-0.002-0.218   C69.331,23.897,68.853,23.409,68.854,22.81z M62.459,23.985c-0.001,0-0.002,0-0.003,0v-0.002c-0.285,0-0.553-0.113-0.754-0.32   c-0.199-0.207-0.311-0.479-0.309-0.77c0.002-0.599,0.481-1.084,1.07-1.084c0.59,0.002,1.065,0.493,1.063,1.092   c-0.003,0.598-0.481,1.082-1.068,1.082V23.985z M66.175,61.638c0.586,0,1.064,0.484,1.067,1.082c0.002,0.6-0.476,1.09-1.063,1.092   l-0.004,0.568v-0.568c-0.586,0-1.063-0.485-1.066-1.082C65.104,62.13,65.582,61.642,66.175,61.638z M72.125,54.249v0.568   l-0.004-0.568c-0.587-0.002-1.063-0.492-1.062-1.09s0.48-1.082,1.07-1.082c0.59,0.002,1.065,0.49,1.065,1.088   C73.191,53.763,72.712,54.249,72.125,54.249z"/><path d="M49.643,52.177c-0.31,0-0.56,0.254-0.56,0.568v2.99c0,0.028,0.013,0.055,0.019,0.082c-0.006,0.028-0.019,0.055-0.019,0.084   c0,2.168-1.659,3.932-3.702,3.932c-2.041,0-3.703-1.764-3.703-3.932c0-0.263,0.02-0.316,0.084-0.521   c0.023-0.067,0.049-0.147,0.076-0.239c1.426-0.847,2.393-2.451,2.393-4.293c0-0.312-0.25-0.568-0.559-0.568   c-0.31,0-0.56,0.256-0.56,0.568c0,2.09-1.601,3.79-3.567,3.79c-1.969,0-3.57-1.7-3.57-3.79c0-0.048-0.017-0.093-0.027-0.136   c0.033-1.33,0.682-2.535,1.756-3.239c0.217-0.142,0.311-0.414,0.227-0.66c-0.082-0.25-0.321-0.408-0.576-0.384   c-0.096,0.009-0.193,0.017-0.293,0.017c-2.041,0-3.701-1.764-3.701-3.933c0-1.614,0.925-3.006,2.24-3.608   c0.412-0.176,0.859-0.277,1.33-0.277c1.969,0,3.568,1.701,3.568,3.791c0,0.314,0.249,0.568,0.559,0.568s0.559-0.254,0.559-0.568   c0-2.406-1.65-4.412-3.823-4.838c-0.012-0.01-0.021-0.021-0.03-0.029c-1.14-0.717-1.819-1.98-1.819-3.377   c0-2.168,1.661-3.934,3.702-3.934c0.312,0,0.621,0.059,0.929,0.146c0.384,2.312,2.304,4.078,4.612,4.078   c0.309,0,0.558-0.254,0.558-0.567c0-0.312-0.249-0.566-0.558-0.566c-1.777,0-3.252-1.389-3.521-3.197   c0.021-0.066,0.035-0.135,0.029-0.209l-0.004-0.059c-0.004-0.062-0.01-0.123-0.01-0.188c0-2.166,1.662-3.93,3.703-3.93   c1.973,0,3.701,1.991,3.701,4.264v3.132c0,0.313,0.249,0.567,0.561,0.567c0.308,0,0.557-0.254,0.557-0.567v-3.131   c0-2.49-1.686-4.711-3.803-5.266v-2.078c0-0.314-0.249-0.568-0.557-0.568l-6.377-0.006c-0.25-0.945-1.096-1.648-2.107-1.648   c-1.204,0.005-2.18,1.007-2.176,2.232c0.006,1.221,0.983,2.213,2.185,2.213h0.009c1.008-0.004,1.85-0.713,2.096-1.66l5.812,0.004   v1.382c-0.019,0-0.037,0.002-0.058,0.004c-0.015-0.002-0.025-0.009-0.039-0.009c-2.473,0-4.5,2.027-4.668,4.582   c-0.289-0.057-0.58-0.088-0.873-0.088c-2.655,0-4.816,2.273-4.816,5.068c0,0.115,0.008,0.23,0.016,0.346h-4.475v-6.322   c0.936-0.256,1.623-1.118,1.619-2.147c-0.004-1.221-0.984-2.213-2.191-2.213c-1.203,0.006-2.18,1.006-2.176,2.229   c0.005,1.027,0.701,1.884,1.633,2.136v6.887c0,0.312,0.25,0.567,0.559,0.567h5.227c0.203,0.705,0.549,1.354,1.021,1.9   c-0.301,0.068-0.59,0.166-0.865,0.291c-1.727,0.728-2.948,2.5-2.948,4.57c0,0.006,0.003,0.012,0.003,0.018   c-0.001,0.027-0.003,0.053-0.003,0.078c0,0.176,0.011,0.35,0.027,0.521h-1.152c-0.226-0.982-1.084-1.721-2.123-1.725   c-1.198,0-2.18,0.993-2.184,2.217c-0.005,1.225,0.973,2.225,2.176,2.229H29c0.984,0,1.811-0.674,2.08-1.588h1.434   c0.545,1.649,1.877,2.916,3.522,3.295c-0.771,0.912-1.206,2.095-1.206,3.354c0,2.793,2.161,5.065,4.816,5.065   c0.312,0,0.621-0.03,0.922-0.094c-0.001,0.035-0.001,0.071-0.001,0.108c0,0.119,0.01,0.236,0.017,0.354l-3.568-0.001   c-0.008,0-0.014-0.004-0.021-0.004c-0.008,0-0.014,0.004-0.021,0.004l-5.605-0.004c-0.25-0.945-1.095-1.648-2.105-1.648   c-1.203,0.004-2.181,1.004-2.176,2.23c0.004,1.221,0.984,2.215,2.184,2.215h0.009c1.009-0.004,1.851-0.713,2.094-1.662l5.063,0.004   v3.273c-0.963,0.227-1.688,1.102-1.691,2.15c-0.005,1.227,0.971,2.227,2.178,2.231h0.006c1.199,0,2.18-0.994,2.184-2.215   c0.004-0.595-0.221-1.152-0.632-1.574c-0.261-0.269-0.58-0.446-0.927-0.553v-3.314l3.224,0.002c0.604,2.07,2.438,3.58,4.604,3.58   c2.656,0,4.818-2.274,4.818-5.067c0-0.029-0.012-0.056-0.016-0.084c0.004-0.027,0.016-0.054,0.016-0.082v-2.99   C50.201,52.431,49.95,52.177,49.643,52.177z M37.367,23.757l-0.003,0.566v-0.566c-0.588,0-1.065-0.486-1.067-1.082   c-0.003-0.6,0.475-1.09,1.066-1.092c0.586,0,1.066,0.486,1.068,1.082C38.434,23.265,37.956,23.755,37.367,23.757z M29.807,27.146   l-0.002,0.002v-0.002c-0.588,0-1.066-0.483-1.068-1.082c-0.002-0.598,0.477-1.09,1.066-1.092c0.588,0,1.065,0.486,1.067,1.084   C30.874,26.653,30.396,27.144,29.807,27.146z M28.996,44.62v0.57l-0.005-0.57c-0.588-0.002-1.065-0.49-1.063-1.088   s0.481-1.084,1.072-1.084c0.588,0.002,1.064,0.492,1.062,1.09S29.582,44.62,28.996,44.62z M29.275,57.909l-0.004,0.568v-0.568   c-0.588,0-1.066-0.486-1.068-1.082c-0.002-0.6,0.477-1.088,1.068-1.092c0.587,0,1.063,0.485,1.066,1.082   C30.342,57.417,29.864,57.907,29.275,57.909z M37.688,62.056c0.201,0.205,0.31,0.479,0.309,0.771   c-0.002,0.596-0.48,1.081-1.066,1.081v0.568l-0.004-0.568c-0.59-0.002-1.065-0.491-1.063-1.092   c0.003-0.596,0.481-1.082,1.073-1.082C37.219,61.735,37.486,61.851,37.688,62.056z"/></g></svg>

